<?xml version="1.0" encoding="utf-8"?>
<!-- Generator: Adobe Illustrator 19.0.0, SVG Export Plug-In . SVG Version: 6.00 Build 0)  -->
<svg version="1.1" id="Layer_1" xmlns="http://www.w3.org/2000/svg" xmlns:xlink="http://www.w3.org/1999/xlink" x="0px" y="0px"
	 viewBox="0 0 457.6 448.4" style="enable-background:new 0 0 457.6 448.4;" xml:space="preserve">
<style type="text/css">
	.st0{fill:#FFC02F;}
	.st1{fill:#FFE799;}
	.st2{fill:#464344;}
	.st3{fill:#C68F81;}
	.st4{fill:#FFFFFF;}
</style>
<g>
	<polygon class="st0" points="457.5,224.3 416.8,274 426.3,337.4 365.9,359.3 342.2,419 278.9,408 228.9,448.3 178.9,408 115.7,419 
		91.9,359.3 31.5,337.4 41,274 0.3,224.3 41,174.7 31.5,111.2 91.9,89.4 115.7,29.7 178.9,40.7 228.9,0.3 278.9,40.7 342.2,29.7 
		365.9,89.4 426.3,111.2 416.8,174.7 	"/>
</g>
<ellipse class="st1" cx="228.9" cy="224.3" rx="160.5" ry="157"/>
<circle class="st2" cx="180.9" cy="208.8" r="15.5"/>
<circle class="st2" cx="276.9" cy="208.8" r="15.5"/>
<path class="st3" d="M228.9,300.8c26,0,47-21,47-47h-94C181.9,279.8,203,300.8,228.9,300.8z"/>
<path class="st4" d="M269.6,277.3c4-6.9,6.3-14.9,6.3-23.5h-94c0,8.6,2.3,16.6,6.3,23.5H269.6z"/>
</svg>
